<?xml version="1.0" encoding="UTF-8" standalone="no"?>
<svg
  
   width="480"
   height="160"
   viewBox="0 0 480 160"
   id="svg2"
   version="1.1"
   xmlns="http://www.w3.org/2000/svg" xmlns:xlink="http://www.w3.org/1999/xlink"> 
   <path             
             id="e0"
             d="m 0,1 7.5,0 7.5,0 7.5,0 7.5,0 7.5,0 7.5,0 7.5,0 7.5,0 7.5,0 7.5,0 7.5,0 7.5,0 7.5,0 7.5,0 7.5,0 7.5,0 7.5,0 7.5,0 7.50001,0 7.5,0 7.5,0 7.5,0 7.5,0 7.5,0 7.5,0 7.5,0 7.5,0 7.5,0 7.5,0 7.5,0 7.5,0 7.5,0 7.5,0 7.5,0 7.5,0 7.5,0 7.5,0 7.5,0 7.5,0 7.5,0 7.5,0 7.5,0 7.5,0 7.5,0 7.5,0 7.5,0 7.5,0 7.5,0 7.5,0 7.5,0 7.5,0 7.5,0 7.5,0 7.5,0 7.5,0 7.5,0 7.5,0 7.5,0 7.5,0 7.5,0 7.5,0 7.5,0 7.5,0 7.5,0"
             style="color:#000000;clip-rule:nonzero;display:inline;overflow:visible;visibility:visible;opacity:1;isolation:auto;mix-blend-mode:normal;color-interpolation:sRGB;color-interpolation-filters:linearRGB;solid-color:#000000;solid-opacity:1;fill:none;fill-opacity:1;fill-rule:evenodd;stroke:#ff0000;stroke-width:1;stroke-linecap:butt;stroke-linejoin:miter;stroke-miterlimit:4;stroke-dasharray:none;stroke-dashoffset:0;stroke-opacity:1;color-rendering:auto;image-rendering:auto;shape-rendering:auto;text-rendering:auto;enable-background:accumulate" />
	 <path             
             id="e0"
             d="m 0,159 7.5,0 7.5,0 7.5,0 7.5,0 7.5,0 7.5,0 7.5,0 7.5,0 7.5,0 7.5,0 7.5,0 7.5,0 7.5,0 7.5,0 7.5,0 7.5,0 7.5,0 7.5,0 7.50001,0 7.5,0 7.5,0 7.5,0 7.5,0 7.5,0 7.5,0 7.5,0 7.5,0 7.5,0 7.5,0 7.5,0 7.5,0 7.5,0 7.5,0 7.5,0 7.5,0 7.5,0 7.5,0 7.5,0 7.5,0 7.5,0 7.5,0 7.5,0 7.5,0 7.5,0 7.5,0 7.5,0 7.5,0 7.5,0 7.5,0 7.5,0 7.5,0 7.5,0 7.5,0 7.5,0 7.5,0 7.5,0 7.5,0 7.5,0 7.5,0 7.5,0 7.5,0 7.5,0 7.5,0 7.5,0"
             style="color:#000000;clip-rule:nonzero;display:inline;overflow:visible;visibility:visible;opacity:1;isolation:auto;mix-blend-mode:normal;color-interpolation:sRGB;color-interpolation-filters:linearRGB;solid-color:#000000;solid-opacity:1;fill:none;fill-opacity:1;fill-rule:evenodd;stroke:#ff0000;stroke-width:1;stroke-linecap:butt;stroke-linejoin:miter;stroke-miterlimit:4;stroke-dasharray:none;stroke-dashoffset:0;stroke-opacity:1;color-rendering:auto;image-rendering:auto;shape-rendering:auto;text-rendering:auto;enable-background:accumulate" />
  <g
     id="layer1"
     transform="translate(0,-10)">        
          <path             
             id="e0"
             d="m 0,30 7.5,0 7.5,0 7.5,0 7.5,0 7.5,0 7.5,0 7.5,0 7.5,0 7.5,0 7.5,0 7.5,0 7.5,0 7.5,0 7.5,0 7.5,0 7.5,0 7.5,0 7.5,0 7.50001,0 7.5,0 7.5,0 7.5,0 7.5,0 7.5,0 7.5,0 7.5,0 7.5,0 7.5,0 7.5,0 7.5,0 7.5,0 7.5,0 7.5,0 7.5,0 7.5,0 7.5,0 7.5,0 7.5,0 7.5,0 7.5,0 7.5,0 7.5,0 7.5,0 7.5,0 7.5,0 7.5,0 7.5,0 7.5,0 7.5,0 7.5,0 7.5,0 7.5,0 7.5,0 7.5,0 7.5,0 7.5,0 7.5,0 7.5,0 7.5,0 7.5,0 7.5,0 7.5,0 7.5,0 7.5,0"
             style="color:#000000;clip-rule:nonzero;display:inline;overflow:visible;visibility:visible;opacity:1;isolation:auto;mix-blend-mode:normal;color-interpolation:sRGB;color-interpolation-filters:linearRGB;solid-color:#000000;solid-opacity:1;fill:none;fill-opacity:1;fill-rule:evenodd;stroke:#000000;stroke-width:1;stroke-linecap:butt;stroke-linejoin:miter;stroke-miterlimit:4;stroke-dasharray:none;stroke-dashoffset:0;stroke-opacity:1;color-rendering:auto;image-rendering:auto;shape-rendering:auto;text-rendering:auto;enable-background:accumulate" />
          <path     
             id="ex0"
             d="m 40,10 0,40"
             style="color:#000000;clip-rule:nonzero;display:inline;overflow:visible;visibility:visible;opacity:1;isolation:auto;mix-blend-mode:normal;color-interpolation:sRGB;color-interpolation-filters:linearRGB;solid-color:#000000;solid-opacity:1;fill:none;fill-opacity:1;fill-rule:evenodd;stroke:#000000;stroke-width:1;stroke-linecap:butt;stroke-linejoin:miter;stroke-miterlimit:4;stroke-dasharray:none;stroke-dashoffset:0;stroke-opacity:1;color-rendering:auto;image-rendering:auto;shape-rendering:auto;text-rendering:auto;enable-background:accumulate" />
          <path
             style="color:#000000;clip-rule:nonzero;display:inline;overflow:visible;visibility:visible;opacity:1;isolation:auto;mix-blend-mode:normal;color-interpolation:sRGB;color-interpolation-filters:linearRGB;solid-color:#000000;solid-opacity:1;fill:none;fill-opacity:1;fill-rule:evenodd;stroke:#000000;stroke-width:1;stroke-linecap:butt;stroke-linejoin:miter;stroke-miterlimit:4;stroke-dasharray:none;stroke-dashoffset:0;stroke-opacity:1;color-rendering:auto;image-rendering:auto;shape-rendering:auto;text-rendering:auto;enable-background:accumulate"
             d="m 0,70 7.5,0 7.5,0 7.5,0 7.5,0 7.5,0 7.5,0 7.5,0 7.5,0 7.5,0 7.5,0 7.5,0 7.5,0 7.5,0 7.5,0 7.5,0 7.5,0 7.5,0 7.5,0 7.50001,0 7.5,0 7.5,0 7.5,0 7.5,0 7.5,0 7.5,0 7.5,0 7.5,0 7.5,0 7.5,0 7.5,0 7.5,0 7.5,0 7.5,0 7.5,0 7.5,0 7.5,0 7.5,0 7.5,0 7.5,0 7.5,0 7.5,0 7.5,0 7.5,0 7.5,0 7.5,0 7.5,0 7.5,0 7.5,0 7.5,0 7.5,0 7.5,0 7.5,0 7.5,0 7.5,0 7.5,0 7.5,0 7.5,0 7.5,0 7.5,0 7.5,0 7.5,0 7.5,0 7.5,0 7.5,0"
             id="e1" />
          <path
             style="color:#000000;clip-rule:nonzero;display:inline;overflow:visible;visibility:visible;opacity:1;isolation:auto;mix-blend-mode:normal;color-interpolation:sRGB;color-interpolation-filters:linearRGB;solid-color:#000000;solid-opacity:1;fill:none;fill-opacity:1;fill-rule:evenodd;stroke:#000000;stroke-width:1;stroke-linecap:butt;stroke-linejoin:miter;stroke-miterlimit:4;stroke-dasharray:none;stroke-dashoffset:0;stroke-opacity:1;color-rendering:auto;image-rendering:auto;shape-rendering:auto;text-rendering:auto;enable-background:accumulate"
             d="m 40,50 0,40"
             id="ex1" />
          <path
             id="e3"
             d="m 0,110 7.5,0 7.5,0 7.5,0 7.5,0 7.5,0 7.5,0 7.5,0 7.5,0 7.5,0 7.5,0 7.5,0 7.5,0 7.5,0 7.5,0 7.5,0 7.5,0 7.5,0 7.5,0 7.5,0 7.5,0 7.5,0 7.5,0 7.5,0 7.5,0 7.5,0 7.5,0 7.5,0 7.5,0 7.5,0 7.5,0 7.5,0 7.5,0 7.5,0 7.5,0 7.5,0 7.5,0 7.5,0 7.5,0 7.5,0 7.5,0 7.5,0 7.5,0 7.5,0 7.5,0 7.5,0 7.5,0 7.5,0 7.5,0 7.5,0 7.5,0 7.5,0 7.5,0 7.5,0 7.5,0 7.5,0 7.5,0 7.5,0 7.5,0 7.5,0 7.5,0 7.5,0 7.5,0 7.5,0 7.5,0"
             style="color:#000000;clip-rule:nonzero;display:inline;overflow:visible;visibility:visible;opacity:1;isolation:auto;mix-blend-mode:normal;color-interpolation:sRGB;color-interpolation-filters:linearRGB;solid-color:#000000;solid-opacity:1;fill:none;fill-opacity:1;fill-rule:evenodd;stroke:#000000;stroke-width:1;stroke-linecap:butt;stroke-linejoin:miter;stroke-miterlimit:4;stroke-dasharray:none;stroke-dashoffset:0;stroke-opacity:1;color-rendering:auto;image-rendering:auto;shape-rendering:auto;text-rendering:auto;enable-background:accumulate" />
          <path
             id="ex3"
             d="m 40,90 0,40"
             style="color:#000000;clip-rule:nonzero;display:inline;overflow:visible;visibility:visible;opacity:1;isolation:auto;mix-blend-mode:normal;color-interpolation:sRGB;color-interpolation-filters:linearRGB;solid-color:#000000;solid-opacity:1;fill:none;fill-opacity:1;fill-rule:evenodd;stroke:#000000;stroke-width:1;stroke-linecap:butt;stroke-linejoin:miter;stroke-miterlimit:4;stroke-dasharray:none;stroke-dashoffset:0;stroke-opacity:1;color-rendering:auto;image-rendering:auto;shape-rendering:auto;text-rendering:auto;enable-background:accumulate" />
          <path
             style="color:#000000;clip-rule:nonzero;display:inline;overflow:visible;visibility:visible;opacity:1;isolation:auto;mix-blend-mode:normal;color-interpolation:sRGB;color-interpolation-filters:linearRGB;solid-color:#000000;solid-opacity:1;fill:none;fill-opacity:1;fill-rule:evenodd;stroke:#000000;stroke-width:1;stroke-linecap:butt;stroke-linejoin:miter;stroke-miterlimit:4;stroke-dasharray:none;stroke-dashoffset:0;stroke-opacity:1;color-rendering:auto;image-rendering:auto;shape-rendering:auto;text-rendering:auto;enable-background:accumulate"
             d="m 0,150 7.5,0 7.5,0 7.5,0 7.5,0 7.5,0 7.5,0 7.5,0 7.5,0 7.5,0 7.5,0 7.5,0 7.5,0 7.5,0 7.5,0 7.5,0 7.5,0 7.5,0 7.5,0 7.5,0 7.5,0 7.5,0 7.5,0 7.5,0 7.5,0 7.5,0 7.5,0 7.5,0 7.5,0 7.5,0 7.5,0 7.5,0 7.5,0 7.5,0 7.5,0 7.5,0 7.5,0 7.5,0 7.5,0 7.5,0 7.5,0 7.5,0 7.5,0 7.5,0 7.5,0 7.5,0 7.5,0 7.5,0 7.5,0 7.5,0 7.5,0 7.5,0 7.5,0 7.5,0 7.5,0 7.5,0 7.5,0 7.5,0 7.5,0 7.5,0 7.5,0 7.5,0 7.5,0 7.5,0 7.5,0"
             id="e4" />
		  <path
             id="ex4"
             d="m 40,130 0,40"
             style="color:#000000;clip-rule:nonzero;display:inline;overflow:visible;visibility:visible;opacity:1;isolation:auto;mix-blend-mode:normal;color-interpolation:sRGB;color-interpolation-filters:linearRGB;solid-color:#000000;solid-opacity:1;fill:none;fill-opacity:1;fill-rule:evenodd;stroke:#000000;stroke-width:1;stroke-linecap:butt;stroke-linejoin:miter;stroke-miterlimit:4;stroke-dasharray:none;stroke-dashoffset:0;stroke-opacity:1;color-rendering:auto;image-rendering:auto;shape-rendering:auto;text-rendering:auto;enable-background:accumulate" />
  </g>
</svg>
